<mxfile host="app.diagrams.net" modified="2024-04-01T13:26:31.587Z" agent="Mozilla/5.0 (Windows NT 10.0; Win64; x64) AppleWebKit/537.36 (KHTML, like Gecko) Chrome/123.0.0.0 Safari/537.36 Edg/123.0.0.0" etag="vTZjCoQPt3eLUqXIhr9K" version="24.2.1" type="github">
  <diagram name="第 1 页" id="fGLSbwL6W34-S6l6e2tC">
    <mxGraphModel dx="9493" dy="5173" grid="1" gridSize="10" guides="1" tooltips="1" connect="1" arrows="1" fold="1" page="1" pageScale="1" pageWidth="4800" pageHeight="2700" math="0" shadow="0">
      <root>
        <mxCell id="0" />
        <mxCell id="1" parent="0" />
        <mxCell id="QW0tAEKdiQ6EHTtRKB5S-1" style="rounded=0;orthogonalLoop=1;jettySize=auto;html=1;exitX=0;exitY=0;exitDx=0;exitDy=0;entryX=1;entryY=1;entryDx=0;entryDy=0;strokeWidth=5;startArrow=none;startFill=0;endArrow=none;endFill=0;" parent="1" source="QW0tAEKdiQ6EHTtRKB5S-5" target="QW0tAEKdiQ6EHTtRKB5S-6" edge="1">
          <mxGeometry relative="1" as="geometry" />
        </mxCell>
        <mxCell id="QW0tAEKdiQ6EHTtRKB5S-2" style="edgeStyle=none;rounded=0;orthogonalLoop=1;jettySize=auto;html=1;exitX=0.25;exitY=0;exitDx=0;exitDy=0;strokeWidth=5;endArrow=none;endFill=0;" parent="1" source="QW0tAEKdiQ6EHTtRKB5S-5" target="QW0tAEKdiQ6EHTtRKB5S-7" edge="1">
          <mxGeometry relative="1" as="geometry" />
        </mxCell>
        <mxCell id="QW0tAEKdiQ6EHTtRKB5S-3" style="edgeStyle=none;rounded=0;orthogonalLoop=1;jettySize=auto;html=1;exitX=0.5;exitY=0;exitDx=0;exitDy=0;entryX=0.5;entryY=1;entryDx=0;entryDy=0;strokeWidth=5;endArrow=none;endFill=0;" parent="1" source="QW0tAEKdiQ6EHTtRKB5S-5" target="QW0tAEKdiQ6EHTtRKB5S-8" edge="1">
          <mxGeometry relative="1" as="geometry" />
        </mxCell>
        <mxCell id="QW0tAEKdiQ6EHTtRKB5S-4" style="rounded=0;orthogonalLoop=1;jettySize=auto;html=1;entryX=0.5;entryY=1;entryDx=0;entryDy=0;strokeWidth=5;endArrow=none;endFill=0;" parent="1" source="QW0tAEKdiQ6EHTtRKB5S-5" target="QW0tAEKdiQ6EHTtRKB5S-9" edge="1">
          <mxGeometry relative="1" as="geometry" />
        </mxCell>
        <mxCell id="QW0tAEKdiQ6EHTtRKB5S-33" style="rounded=0;orthogonalLoop=1;jettySize=auto;html=1;exitX=1;exitY=1;exitDx=0;exitDy=0;entryX=0;entryY=0.5;entryDx=0;entryDy=0;endArrow=none;endFill=0;strokeWidth=5;" parent="1" source="QW0tAEKdiQ6EHTtRKB5S-5" target="QW0tAEKdiQ6EHTtRKB5S-32" edge="1">
          <mxGeometry relative="1" as="geometry" />
        </mxCell>
        <mxCell id="QW0tAEKdiQ6EHTtRKB5S-5" value="员工信息表" style="html=1;whiteSpace=wrap;fontSize=60;strokeWidth=2;" parent="1" vertex="1">
          <mxGeometry x="1030" y="780" width="740" height="110" as="geometry" />
        </mxCell>
        <mxCell id="QW0tAEKdiQ6EHTtRKB5S-6" value="员工所属部门ID" style="ellipse;whiteSpace=wrap;html=1;fontSize=55;strokeWidth=2;fontStyle=0" parent="1" vertex="1">
          <mxGeometry x="170" y="550" width="440" height="150" as="geometry" />
        </mxCell>
        <mxCell id="QW0tAEKdiQ6EHTtRKB5S-7" value="员工ID" style="ellipse;whiteSpace=wrap;html=1;fontSize=55;strokeWidth=2;fontStyle=4" parent="1" vertex="1">
          <mxGeometry x="360" y="310" width="270" height="150" as="geometry" />
        </mxCell>
        <mxCell id="QW0tAEKdiQ6EHTtRKB5S-8" value="员工名字" style="ellipse;whiteSpace=wrap;html=1;fontSize=55;strokeWidth=2;" parent="1" vertex="1">
          <mxGeometry x="740" y="230" width="270" height="150" as="geometry" />
        </mxCell>
        <mxCell id="QW0tAEKdiQ6EHTtRKB5S-9" value="员工个性签名" style="ellipse;whiteSpace=wrap;html=1;fontSize=55;strokeWidth=2;" parent="1" vertex="1">
          <mxGeometry x="1215" y="200" width="370" height="150" as="geometry" />
        </mxCell>
        <mxCell id="QW0tAEKdiQ6EHTtRKB5S-10" style="edgeStyle=none;rounded=0;orthogonalLoop=1;jettySize=auto;html=1;exitX=0.5;exitY=1;exitDx=0;exitDy=0;entryX=0.5;entryY=0;entryDx=0;entryDy=0;strokeWidth=5;endArrow=none;endFill=0;" parent="1" source="QW0tAEKdiQ6EHTtRKB5S-11" target="QW0tAEKdiQ6EHTtRKB5S-5" edge="1">
          <mxGeometry relative="1" as="geometry" />
        </mxCell>
        <mxCell id="QW0tAEKdiQ6EHTtRKB5S-11" value="员工状态" style="ellipse;whiteSpace=wrap;html=1;fontSize=55;strokeWidth=2;" parent="1" vertex="1">
          <mxGeometry x="1680" y="230" width="270" height="150" as="geometry" />
        </mxCell>
        <mxCell id="QW0tAEKdiQ6EHTtRKB5S-12" style="edgeStyle=none;rounded=0;orthogonalLoop=1;jettySize=auto;html=1;exitX=0;exitY=1;exitDx=0;exitDy=0;entryX=0.75;entryY=0;entryDx=0;entryDy=0;strokeWidth=5;endArrow=none;endFill=0;" parent="1" source="QW0tAEKdiQ6EHTtRKB5S-13" target="QW0tAEKdiQ6EHTtRKB5S-5" edge="1">
          <mxGeometry relative="1" as="geometry" />
        </mxCell>
        <mxCell id="QW0tAEKdiQ6EHTtRKB5S-13" value="员工头像路径" style="ellipse;whiteSpace=wrap;html=1;fontSize=55;strokeWidth=2;" parent="1" vertex="1">
          <mxGeometry x="2010" y="310" width="370" height="150" as="geometry" />
        </mxCell>
        <mxCell id="QW0tAEKdiQ6EHTtRKB5S-14" style="edgeStyle=none;rounded=0;orthogonalLoop=1;jettySize=auto;html=1;exitX=0;exitY=1;exitDx=0;exitDy=0;entryX=1;entryY=0;entryDx=0;entryDy=0;strokeWidth=5;endArrow=none;endFill=0;" parent="1" source="QW0tAEKdiQ6EHTtRKB5S-15" target="QW0tAEKdiQ6EHTtRKB5S-5" edge="1">
          <mxGeometry relative="1" as="geometry" />
        </mxCell>
        <mxCell id="QW0tAEKdiQ6EHTtRKB5S-15" value="员工在线状态" style="ellipse;whiteSpace=wrap;html=1;fontSize=55;strokeWidth=2;" parent="1" vertex="1">
          <mxGeometry x="2170" y="520" width="370" height="150" as="geometry" />
        </mxCell>
        <mxCell id="QW0tAEKdiQ6EHTtRKB5S-16" style="rounded=0;orthogonalLoop=1;jettySize=auto;html=1;exitX=1;exitY=0;exitDx=0;exitDy=0;entryX=1;entryY=1;entryDx=0;entryDy=0;strokeWidth=5;startArrow=none;startFill=0;endArrow=none;endFill=0;" parent="1" source="QW0tAEKdiQ6EHTtRKB5S-20" target="QW0tAEKdiQ6EHTtRKB5S-21" edge="1">
          <mxGeometry relative="1" as="geometry" />
        </mxCell>
        <mxCell id="QW0tAEKdiQ6EHTtRKB5S-17" style="edgeStyle=none;rounded=0;orthogonalLoop=1;jettySize=auto;html=1;exitX=1;exitY=0.25;exitDx=0;exitDy=0;strokeWidth=5;endArrow=none;endFill=0;" parent="1" source="QW0tAEKdiQ6EHTtRKB5S-20" target="QW0tAEKdiQ6EHTtRKB5S-22" edge="1">
          <mxGeometry relative="1" as="geometry" />
        </mxCell>
        <mxCell id="QW0tAEKdiQ6EHTtRKB5S-18" style="edgeStyle=none;rounded=0;orthogonalLoop=1;jettySize=auto;html=1;exitX=1;exitY=1;exitDx=0;exitDy=0;entryX=0.5;entryY=1;entryDx=0;entryDy=0;strokeWidth=5;endArrow=none;endFill=0;" parent="1" source="QW0tAEKdiQ6EHTtRKB5S-20" target="QW0tAEKdiQ6EHTtRKB5S-23" edge="1">
          <mxGeometry relative="1" as="geometry" />
        </mxCell>
        <mxCell id="QW0tAEKdiQ6EHTtRKB5S-19" style="rounded=0;orthogonalLoop=1;jettySize=auto;html=1;exitX=0.75;exitY=1;exitDx=0;exitDy=0;entryX=0;entryY=1;entryDx=0;entryDy=0;strokeWidth=5;endArrow=none;endFill=0;" parent="1" source="QW0tAEKdiQ6EHTtRKB5S-20" target="QW0tAEKdiQ6EHTtRKB5S-24" edge="1">
          <mxGeometry relative="1" as="geometry" />
        </mxCell>
        <mxCell id="QW0tAEKdiQ6EHTtRKB5S-20" value="部门表" style="html=1;whiteSpace=wrap;fontSize=60;strokeWidth=2;" parent="1" vertex="1">
          <mxGeometry x="3350" y="570" width="250" height="110" as="geometry" />
        </mxCell>
        <mxCell id="QW0tAEKdiQ6EHTtRKB5S-21" value="部门ID" style="ellipse;whiteSpace=wrap;html=1;fontSize=55;strokeWidth=2;fontStyle=4" parent="1" vertex="1">
          <mxGeometry x="3910" y="100" width="270" height="150" as="geometry" />
        </mxCell>
        <mxCell id="QW0tAEKdiQ6EHTtRKB5S-22" value="&lt;span&gt;部门名字&lt;/span&gt;" style="ellipse;whiteSpace=wrap;html=1;fontSize=55;strokeWidth=2;fontStyle=0" parent="1" vertex="1">
          <mxGeometry x="4270" y="250" width="270" height="150" as="geometry" />
        </mxCell>
        <mxCell id="QW0tAEKdiQ6EHTtRKB5S-23" value="图片路径" style="ellipse;whiteSpace=wrap;html=1;fontSize=55;strokeWidth=2;" parent="1" vertex="1">
          <mxGeometry x="4290" y="500" width="270" height="150" as="geometry" />
        </mxCell>
        <mxCell id="QW0tAEKdiQ6EHTtRKB5S-24" value="个性签名" style="ellipse;whiteSpace=wrap;html=1;fontSize=55;strokeWidth=2;" parent="1" vertex="1">
          <mxGeometry x="4350" y="770" width="270" height="150" as="geometry" />
        </mxCell>
        <mxCell id="QW0tAEKdiQ6EHTtRKB5S-25" style="rounded=0;orthogonalLoop=1;jettySize=auto;html=1;exitX=0;exitY=1;exitDx=0;exitDy=0;entryX=1;entryY=0;entryDx=0;entryDy=0;strokeWidth=5;startArrow=none;startFill=0;endArrow=none;endFill=0;" parent="1" source="QW0tAEKdiQ6EHTtRKB5S-28" target="QW0tAEKdiQ6EHTtRKB5S-29" edge="1">
          <mxGeometry relative="1" as="geometry" />
        </mxCell>
        <mxCell id="QW0tAEKdiQ6EHTtRKB5S-26" style="edgeStyle=none;rounded=0;orthogonalLoop=1;jettySize=auto;html=1;exitX=0.5;exitY=1;exitDx=0;exitDy=0;strokeWidth=5;endArrow=none;endFill=0;" parent="1" source="QW0tAEKdiQ6EHTtRKB5S-28" target="QW0tAEKdiQ6EHTtRKB5S-30" edge="1">
          <mxGeometry relative="1" as="geometry" />
        </mxCell>
        <mxCell id="QW0tAEKdiQ6EHTtRKB5S-27" style="edgeStyle=none;rounded=0;orthogonalLoop=1;jettySize=auto;html=1;exitX=1;exitY=1;exitDx=0;exitDy=0;entryX=0;entryY=0;entryDx=0;entryDy=0;strokeWidth=5;endArrow=none;endFill=0;" parent="1" source="QW0tAEKdiQ6EHTtRKB5S-28" target="QW0tAEKdiQ6EHTtRKB5S-31" edge="1">
          <mxGeometry relative="1" as="geometry" />
        </mxCell>
        <mxCell id="QW0tAEKdiQ6EHTtRKB5S-43" style="edgeStyle=none;rounded=0;orthogonalLoop=1;jettySize=auto;html=1;exitX=0.5;exitY=0;exitDx=0;exitDy=0;entryX=0.5;entryY=1;entryDx=0;entryDy=0;strokeWidth=5;endArrow=none;endFill=0;" parent="1" source="QW0tAEKdiQ6EHTtRKB5S-28" target="QW0tAEKdiQ6EHTtRKB5S-41" edge="1">
          <mxGeometry relative="1" as="geometry" />
        </mxCell>
        <mxCell id="vrVnIme9YNmF5LANNV59-17" style="rounded=0;orthogonalLoop=1;jettySize=auto;html=1;exitX=1;exitY=0.75;exitDx=0;exitDy=0;entryX=0;entryY=0.5;entryDx=0;entryDy=0;endArrow=none;endFill=0;strokeWidth=5;" edge="1" parent="1" source="QW0tAEKdiQ6EHTtRKB5S-28" target="vrVnIme9YNmF5LANNV59-14">
          <mxGeometry relative="1" as="geometry" />
        </mxCell>
        <mxCell id="QW0tAEKdiQ6EHTtRKB5S-28" value="账号表" style="html=1;whiteSpace=wrap;fontSize=60;strokeWidth=2;" parent="1" vertex="1">
          <mxGeometry x="1280" y="1790" width="250" height="110" as="geometry" />
        </mxCell>
        <mxCell id="QW0tAEKdiQ6EHTtRKB5S-29" value="员工ID" style="ellipse;whiteSpace=wrap;html=1;fontSize=55;strokeWidth=2;" parent="1" vertex="1">
          <mxGeometry x="660" y="2370" width="270" height="150" as="geometry" />
        </mxCell>
        <mxCell id="QW0tAEKdiQ6EHTtRKB5S-30" value="&lt;u&gt;账号&lt;/u&gt;" style="ellipse;whiteSpace=wrap;html=1;fontSize=55;strokeWidth=2;" parent="1" vertex="1">
          <mxGeometry x="1270" y="2400" width="270" height="150" as="geometry" />
        </mxCell>
        <mxCell id="QW0tAEKdiQ6EHTtRKB5S-31" value="密码" style="ellipse;whiteSpace=wrap;html=1;fontSize=55;strokeWidth=2;" parent="1" vertex="1">
          <mxGeometry x="1820" y="2300" width="270" height="150" as="geometry" />
        </mxCell>
        <mxCell id="QW0tAEKdiQ6EHTtRKB5S-34" style="edgeStyle=none;rounded=0;orthogonalLoop=1;jettySize=auto;html=1;exitX=1;exitY=0.5;exitDx=0;exitDy=0;entryX=0;entryY=0.5;entryDx=0;entryDy=0;strokeWidth=5;endArrow=none;endFill=0;" parent="1" source="QW0tAEKdiQ6EHTtRKB5S-32" target="QW0tAEKdiQ6EHTtRKB5S-20" edge="1">
          <mxGeometry relative="1" as="geometry" />
        </mxCell>
        <mxCell id="QW0tAEKdiQ6EHTtRKB5S-32" value="所属" style="rhombus;whiteSpace=wrap;html=1;fontSize=50;strokeWidth=2;" parent="1" vertex="1">
          <mxGeometry x="2590" y="800" width="330" height="150" as="geometry" />
        </mxCell>
        <mxCell id="QW0tAEKdiQ6EHTtRKB5S-35" value="1" style="text;html=1;align=center;verticalAlign=middle;resizable=0;points=[];autosize=1;strokeColor=none;fillColor=none;fontSize=60;" parent="1" vertex="1">
          <mxGeometry x="3220" y="508" width="60" height="90" as="geometry" />
        </mxCell>
        <mxCell id="QW0tAEKdiQ6EHTtRKB5S-36" value="n" style="text;html=1;align=center;verticalAlign=middle;resizable=0;points=[];autosize=1;strokeColor=none;fillColor=none;fontSize=60;" parent="1" vertex="1">
          <mxGeometry x="1920" y="830" width="60" height="90" as="geometry" />
        </mxCell>
        <mxCell id="QW0tAEKdiQ6EHTtRKB5S-42" style="edgeStyle=none;rounded=0;orthogonalLoop=1;jettySize=auto;html=1;exitX=0.5;exitY=0;exitDx=0;exitDy=0;endArrow=none;endFill=0;strokeWidth=5;" parent="1" source="QW0tAEKdiQ6EHTtRKB5S-41" target="QW0tAEKdiQ6EHTtRKB5S-5" edge="1">
          <mxGeometry relative="1" as="geometry" />
        </mxCell>
        <mxCell id="QW0tAEKdiQ6EHTtRKB5S-41" value="拥有" style="rhombus;whiteSpace=wrap;html=1;fontSize=50;strokeWidth=2;" parent="1" vertex="1">
          <mxGeometry x="1240" y="1270" width="330" height="150" as="geometry" />
        </mxCell>
        <mxCell id="QW0tAEKdiQ6EHTtRKB5S-45" value="1" style="text;html=1;align=center;verticalAlign=middle;resizable=0;points=[];autosize=1;strokeColor=none;fillColor=none;fontSize=60;" parent="1" vertex="1">
          <mxGeometry x="1300" y="950" width="60" height="90" as="geometry" />
        </mxCell>
        <mxCell id="QW0tAEKdiQ6EHTtRKB5S-46" value="1" style="text;html=1;align=center;verticalAlign=middle;resizable=0;points=[];autosize=1;strokeColor=none;fillColor=none;fontSize=60;" parent="1" vertex="1">
          <mxGeometry x="1310" y="1650" width="60" height="90" as="geometry" />
        </mxCell>
        <mxCell id="vrVnIme9YNmF5LANNV59-1" style="rounded=0;orthogonalLoop=1;jettySize=auto;html=1;exitX=1;exitY=0;exitDx=0;exitDy=0;entryX=0.053;entryY=0.827;entryDx=0;entryDy=0;strokeWidth=5;startArrow=none;startFill=0;endArrow=none;endFill=0;entryPerimeter=0;" edge="1" parent="1" source="vrVnIme9YNmF5LANNV59-5" target="vrVnIme9YNmF5LANNV59-6">
          <mxGeometry relative="1" as="geometry" />
        </mxCell>
        <mxCell id="vrVnIme9YNmF5LANNV59-2" style="edgeStyle=none;rounded=0;orthogonalLoop=1;jettySize=auto;html=1;exitX=1;exitY=0;exitDx=0;exitDy=0;strokeWidth=5;endArrow=none;endFill=0;" edge="1" parent="1" source="vrVnIme9YNmF5LANNV59-5" target="vrVnIme9YNmF5LANNV59-7">
          <mxGeometry relative="1" as="geometry" />
        </mxCell>
        <mxCell id="vrVnIme9YNmF5LANNV59-3" style="edgeStyle=none;rounded=0;orthogonalLoop=1;jettySize=auto;html=1;exitX=1;exitY=0.25;exitDx=0;exitDy=0;entryX=0;entryY=0.5;entryDx=0;entryDy=0;strokeWidth=5;endArrow=none;endFill=0;" edge="1" parent="1" source="vrVnIme9YNmF5LANNV59-5" target="vrVnIme9YNmF5LANNV59-8">
          <mxGeometry relative="1" as="geometry" />
        </mxCell>
        <mxCell id="vrVnIme9YNmF5LANNV59-4" style="rounded=0;orthogonalLoop=1;jettySize=auto;html=1;entryX=0;entryY=0.5;entryDx=0;entryDy=0;strokeWidth=5;endArrow=none;endFill=0;exitX=1;exitY=0.25;exitDx=0;exitDy=0;" edge="1" parent="1" source="vrVnIme9YNmF5LANNV59-5" target="vrVnIme9YNmF5LANNV59-9">
          <mxGeometry relative="1" as="geometry" />
        </mxCell>
        <mxCell id="vrVnIme9YNmF5LANNV59-5" value="聊天记录存储表" style="html=1;whiteSpace=wrap;fontSize=60;strokeWidth=2;" vertex="1" parent="1">
          <mxGeometry x="2540" y="1720" width="740" height="190" as="geometry" />
        </mxCell>
        <mxCell id="vrVnIme9YNmF5LANNV59-6" value="ID" style="ellipse;whiteSpace=wrap;html=1;fontSize=55;strokeWidth=2;fontStyle=4" vertex="1" parent="1">
          <mxGeometry x="3960" y="1210" width="300" height="150" as="geometry" />
        </mxCell>
        <mxCell id="vrVnIme9YNmF5LANNV59-7" value="发信息者" style="ellipse;whiteSpace=wrap;html=1;fontSize=55;strokeWidth=2;fontStyle=0" vertex="1" parent="1">
          <mxGeometry x="4140" y="1390" width="330" height="150" as="geometry" />
        </mxCell>
        <mxCell id="vrVnIme9YNmF5LANNV59-8" value="收信息者" style="ellipse;whiteSpace=wrap;html=1;fontSize=55;strokeWidth=2;" vertex="1" parent="1">
          <mxGeometry x="4160" y="1650" width="320" height="150" as="geometry" />
        </mxCell>
        <mxCell id="vrVnIme9YNmF5LANNV59-9" value="聊天记录" style="ellipse;whiteSpace=wrap;html=1;fontSize=55;strokeWidth=2;" vertex="1" parent="1">
          <mxGeometry x="4130" y="1860" width="370" height="150" as="geometry" />
        </mxCell>
        <mxCell id="vrVnIme9YNmF5LANNV59-10" style="edgeStyle=none;rounded=0;orthogonalLoop=1;jettySize=auto;html=1;exitX=0.5;exitY=1;exitDx=0;exitDy=0;entryX=1;entryY=0.5;entryDx=0;entryDy=0;strokeWidth=5;endArrow=none;endFill=0;" edge="1" parent="1" source="vrVnIme9YNmF5LANNV59-11" target="vrVnIme9YNmF5LANNV59-5">
          <mxGeometry relative="1" as="geometry" />
        </mxCell>
        <mxCell id="vrVnIme9YNmF5LANNV59-11" value="更新时间" style="ellipse;whiteSpace=wrap;html=1;fontSize=55;strokeWidth=2;" vertex="1" parent="1">
          <mxGeometry x="3990" y="2130" width="360" height="150" as="geometry" />
        </mxCell>
        <mxCell id="vrVnIme9YNmF5LANNV59-12" style="edgeStyle=none;rounded=0;orthogonalLoop=1;jettySize=auto;html=1;exitX=0;exitY=0;exitDx=0;exitDy=0;entryX=1;entryY=1;entryDx=0;entryDy=0;strokeWidth=5;endArrow=none;endFill=0;" edge="1" parent="1" source="vrVnIme9YNmF5LANNV59-13" target="vrVnIme9YNmF5LANNV59-5">
          <mxGeometry relative="1" as="geometry" />
        </mxCell>
        <mxCell id="vrVnIme9YNmF5LANNV59-13" value="创建时间" style="ellipse;whiteSpace=wrap;html=1;fontSize=55;strokeWidth=2;" vertex="1" parent="1">
          <mxGeometry x="3810" y="2360" width="330" height="150" as="geometry" />
        </mxCell>
        <mxCell id="vrVnIme9YNmF5LANNV59-16" style="rounded=0;orthogonalLoop=1;jettySize=auto;html=1;exitX=1;exitY=0.5;exitDx=0;exitDy=0;entryX=0;entryY=0.5;entryDx=0;entryDy=0;strokeWidth=5;endArrow=none;endFill=0;" edge="1" parent="1" source="vrVnIme9YNmF5LANNV59-14" target="vrVnIme9YNmF5LANNV59-5">
          <mxGeometry relative="1" as="geometry" />
        </mxCell>
        <mxCell id="vrVnIme9YNmF5LANNV59-14" value="关联" style="rhombus;whiteSpace=wrap;html=1;fontSize=50;strokeWidth=2;" vertex="1" parent="1">
          <mxGeometry x="1870" y="1770" width="330" height="150" as="geometry" />
        </mxCell>
        <mxCell id="vrVnIme9YNmF5LANNV59-18" value="1" style="text;html=1;align=center;verticalAlign=middle;resizable=0;points=[];autosize=1;strokeColor=none;fillColor=none;fontSize=60;" vertex="1" parent="1">
          <mxGeometry x="1580" y="1760" width="60" height="90" as="geometry" />
        </mxCell>
        <mxCell id="vrVnIme9YNmF5LANNV59-19" value="1" style="text;html=1;align=center;verticalAlign=middle;resizable=0;points=[];autosize=1;strokeColor=none;fillColor=none;fontSize=60;" vertex="1" parent="1">
          <mxGeometry x="2400" y="1720" width="60" height="90" as="geometry" />
        </mxCell>
        <mxCell id="vrVnIme9YNmF5LANNV59-21" style="rounded=0;orthogonalLoop=1;jettySize=auto;html=1;exitX=0.5;exitY=0;exitDx=0;exitDy=0;entryX=0.5;entryY=1;entryDx=0;entryDy=0;strokeWidth=5;endArrow=none;endFill=0;" edge="1" parent="1" source="vrVnIme9YNmF5LANNV59-20" target="QW0tAEKdiQ6EHTtRKB5S-20">
          <mxGeometry relative="1" as="geometry" />
        </mxCell>
        <mxCell id="vrVnIme9YNmF5LANNV59-22" style="rounded=0;orthogonalLoop=1;jettySize=auto;html=1;exitX=0.5;exitY=1;exitDx=0;exitDy=0;endArrow=none;endFill=0;strokeWidth=5;" edge="1" parent="1" source="vrVnIme9YNmF5LANNV59-20" target="vrVnIme9YNmF5LANNV59-5">
          <mxGeometry relative="1" as="geometry" />
        </mxCell>
        <mxCell id="vrVnIme9YNmF5LANNV59-20" value="关联" style="rhombus;whiteSpace=wrap;html=1;fontSize=50;strokeWidth=2;" vertex="1" parent="1">
          <mxGeometry x="3090" y="1190" width="330" height="150" as="geometry" />
        </mxCell>
        <mxCell id="vrVnIme9YNmF5LANNV59-23" value="1" style="text;html=1;align=center;verticalAlign=middle;resizable=0;points=[];autosize=1;strokeColor=none;fillColor=none;fontSize=60;" vertex="1" parent="1">
          <mxGeometry x="3320" y="750" width="60" height="90" as="geometry" />
        </mxCell>
        <mxCell id="vrVnIme9YNmF5LANNV59-24" value="1" style="text;html=1;align=center;verticalAlign=middle;resizable=0;points=[];autosize=1;strokeColor=none;fillColor=none;fontSize=60;" vertex="1" parent="1">
          <mxGeometry x="2940" y="1560" width="60" height="90" as="geometry" />
        </mxCell>
      </root>
    </mxGraphModel>
  </diagram>
</mxfile>
